<?xml version="1.0" encoding="iso-8859-1"?>
<!-- Generator: Adobe Illustrator 19.0.0, SVG Export Plug-In . SVG Version: 6.00 Build 0)  -->
<svg version="1.1" id="Layer_1" xmlns="http://www.w3.org/2000/svg" xmlns:xlink="http://www.w3.org/1999/xlink" x="0px" y="0px"
	 viewBox="0 0 511.999 511.999" style="enable-background:new 0 0 511.999 511.999;" xml:space="preserve">
<g>
	<path style="fill:#B3404A;" d="M175.557,278.007h-0.001c-6.828,0-13.179-3.313-17.883-9.327
		C133.31,237.528,60.527,146.861,54.079,138.83c-17.504-18.025-26.351-50.786-20.162-75.034l9.103-35.661
		C48.314,7.391,62.127,0,73.289,0c6.879,0,17.252,2.553,27.611,14.716c0.222,0.259,0.434,0.527,0.635,0.801
		c0.955,1.297,95.727,130.191,126.813,173.223c8.038,11.129,8.025,22.415-0.034,33.544c-4.49,6.197-10.893,14.587-17.673,23.468
		c-6.043,7.916-12.291,16.101-17.049,22.576C189.072,274.48,182.499,278.007,175.557,278.007z M73.657,28.746
		c-0.671,0.729-1.935,2.678-2.901,6.468l-9.103,35.661c-3.797,14.878,2.396,37.453,13.253,48.31
		c0.366,0.366,0.714,0.753,1.039,1.158c0.74,0.922,70.141,87.344,99.425,124.524c3.909-5.205,8.264-10.91,12.518-16.484
		c6.668-8.735,12.967-16.986,17.244-22.891c0.001-0.001,0.003-0.003,0.003-0.004c-30.099-41.666-120.1-164.092-126.327-172.56
		C76.417,30.205,74.543,29.09,73.657,28.746z"/>
	<path style="fill:#B3404A;" d="M336.453,278.007c-0.106,0-0.212,0-0.318-0.001c-6.823-0.103-13.285-3.628-17.727-9.675
		c-4.757-6.473-11.006-14.66-17.049-22.575c-6.78-8.882-13.185-17.272-17.673-23.469c-8.061-11.131-8.074-22.416-0.037-33.544
		c12.814-17.739,37.5-51.532,73.372-100.444c4.676-6.372,13.63-7.752,20.006-3.077c6.375,4.676,7.752,13.631,3.077,20.006
		c-35.317,48.154-60.643,82.824-73.239,100.263c0.001,0.001,0.003,0.003,0.004,0.006c4.278,5.905,10.575,14.156,17.244,22.893
		c4.254,5.573,8.607,11.277,12.518,16.482c29.299-37.196,98.685-123.602,99.425-124.524c0.325-0.405,0.671-0.791,1.039-1.159
		c10.857-10.857,17.052-33.432,13.253-48.31l-9.103-35.661c-0.968-3.79-2.231-5.739-2.903-6.468
		c-0.887,0.345-2.758,1.458-5.15,4.179l-12.339,16.788c-4.68,6.37-13.635,7.742-20.007,3.06c-6.37-4.68-7.74-13.638-3.06-20.007
		l12.676-17.248c0.203-0.275,0.415-0.542,0.635-0.803c9.873-11.592,22.178-16.7,33.747-14.016
		c11.573,2.684,20.369,12.684,24.135,27.435l9.103,35.661c6.189,24.248-2.658,57.009-20.162,75.036
		c-6.448,8.031-79.231,98.698-103.593,129.849C349.616,274.703,343.278,278.007,336.453,278.007z"/>
	<path style="fill:#B3404A;" d="M256,318.565c-21.394,0-38.799-17.405-38.799-38.799s17.405-38.799,38.799-38.799
		s38.799,17.405,38.799,38.799S277.394,318.565,256,318.565z M256,269.59c-5.61,0-10.175,4.564-10.175,10.175
		s4.564,10.175,10.175,10.175c5.61,0,10.175-4.564,10.175-10.175S261.61,269.59,256,269.59z"/>
</g>
<path id="SVGCleanerId_0" style="fill:#F4B2B0;" d="M346.278,328.343l-8.104-8.104c-5.432-5.432-14.238-5.432-19.671,0
	l-30.158,30.158c-5.432,5.432-5.432,14.238,0,19.671l8.104,8.104c-12.634,32.428-5.271,70.851,22.133,96.265
	c33.179,30.77,85.076,31.034,118.542,0.577c37.295-33.942,38.317-91.728,3.069-126.978
	C414.8,322.643,377.721,316.093,346.278,328.343z M406.558,438.451c-15.681,15.681-41.102,15.681-56.783,0
	c-15.681-15.681-15.681-41.102,0-56.783c15.681-15.681,41.102-15.681,56.783,0C422.238,397.349,422.238,422.772,406.558,438.451z"/>
<path id="SVGCleanerId_1" style="fill:#B3404A;" d="M378.185,511.999c-0.001,0,0,0-0.001,0c-25.89,0-50.513-9.612-69.333-27.068
	c-28.593-26.517-39.391-66.047-28.792-102.91l-1.832-1.831c-11.003-11.003-11.003-28.908,0-39.912l30.158-30.158
	c5.331-5.33,12.417-8.265,19.956-8.265s14.624,2.935,19.956,8.265l1.838,1.839c9.098-2.599,18.502-3.912,28.062-3.912
	c27.245,0,52.857,10.608,72.117,29.869c19.914,19.916,30.517,46.394,29.856,74.558c-0.663,28.15-12.528,54.119-33.411,73.126
	C428.052,502.621,403.698,511.999,378.185,511.999z M298.753,360.234l7.817,7.817c4.016,4.016,5.278,10.024,3.216,15.317
	c-11.021,28.288-3.748,59.916,18.529,80.574c13.511,12.529,31.222,19.43,49.87,19.43c18.371,0,35.883-6.728,49.306-18.945
	c15.039-13.687,23.584-32.379,24.061-52.63c0.477-20.265-7.152-39.316-21.48-53.643c-13.854-13.854-32.277-21.484-51.877-21.484
	c-9.2,0-18.19,1.686-26.721,5.009c-5.29,2.062-11.301,0.799-15.317-3.216l-7.817-7.819L298.753,360.234z M378.166,464.524
	c-14.549,0-28.225-5.665-38.512-15.953c-21.235-21.235-21.235-55.788,0-77.025c10.288-10.286,23.965-15.953,38.512-15.953
	s28.225,5.665,38.512,15.953c21.235,21.235,21.235,55.788,0,77.024C406.392,458.86,392.715,464.524,378.166,464.524z
	 M378.166,384.22c-6.901,0-13.391,2.688-18.271,7.568c-10.074,10.074-10.074,26.468,0,36.542c4.881,4.881,11.368,7.568,18.271,7.568
	s13.391-2.688,18.271-7.568c10.074-10.074,10.076-26.468,0-36.542C391.557,386.908,385.069,384.22,378.166,384.22z"/>
<g>
	<path id="SVGCleanerId_0_1_" style="fill:#F4B2B0;" d="M346.278,328.343l-8.104-8.104c-5.432-5.432-14.238-5.432-19.671,0
		l-30.158,30.158c-5.432,5.432-5.432,14.238,0,19.671l8.104,8.104c-12.634,32.428-5.271,70.851,22.133,96.265
		c33.179,30.77,85.076,31.034,118.542,0.577c37.295-33.942,38.317-91.728,3.069-126.978
		C414.8,322.643,377.721,316.093,346.278,328.343z M406.558,438.451c-15.681,15.681-41.102,15.681-56.783,0
		c-15.681-15.681-15.681-41.102,0-56.783c15.681-15.681,41.102-15.681,56.783,0C422.238,397.349,422.238,422.772,406.558,438.451z"
		/>
</g>
<g>
	<path id="SVGCleanerId_1_1_" style="fill:#B3404A;" d="M378.185,511.999c-0.001,0,0,0-0.001,0c-25.89,0-50.513-9.612-69.333-27.068
		c-28.593-26.517-39.391-66.047-28.792-102.91l-1.832-1.831c-11.003-11.003-11.003-28.908,0-39.912l30.158-30.158
		c5.331-5.33,12.417-8.265,19.956-8.265s14.624,2.935,19.956,8.265l1.838,1.839c9.098-2.599,18.502-3.912,28.062-3.912
		c27.245,0,52.857,10.608,72.117,29.869c19.914,19.916,30.517,46.394,29.856,74.558c-0.663,28.15-12.528,54.119-33.411,73.126
		C428.052,502.621,403.698,511.999,378.185,511.999z M298.753,360.234l7.817,7.817c4.016,4.016,5.278,10.024,3.216,15.317
		c-11.021,28.288-3.748,59.916,18.529,80.574c13.511,12.529,31.222,19.43,49.87,19.43c18.371,0,35.883-6.728,49.306-18.945
		c15.039-13.687,23.584-32.379,24.061-52.63c0.477-20.265-7.152-39.316-21.48-53.643c-13.854-13.854-32.277-21.484-51.877-21.484
		c-9.2,0-18.19,1.686-26.721,5.009c-5.29,2.062-11.301,0.799-15.317-3.216l-7.817-7.819L298.753,360.234z M378.166,464.524
		c-14.549,0-28.225-5.665-38.512-15.953c-21.235-21.235-21.235-55.788,0-77.025c10.288-10.286,23.965-15.953,38.512-15.953
		s28.225,5.665,38.512,15.953c21.235,21.235,21.235,55.788,0,77.024C406.392,458.86,392.715,464.524,378.166,464.524z
		 M378.166,384.22c-6.901,0-13.391,2.688-18.271,7.568c-10.074,10.074-10.074,26.468,0,36.542
		c4.881,4.881,11.368,7.568,18.271,7.568s13.391-2.688,18.271-7.568c10.074-10.074,10.076-26.468,0-36.542
		C391.557,386.908,385.069,384.22,378.166,384.22z"/>
</g>
<path style="fill:#F4B2B0;" d="M71.807,348.034c-35.25,35.25-34.227,93.036,3.069,126.978
	c33.467,30.458,85.363,30.195,118.542-0.577c27.404-25.414,34.766-63.836,22.133-96.265l8.104-8.104
	c5.432-5.432,5.432-14.238,0-19.671l-30.158-30.158c-5.432-5.432-14.238-5.432-19.671,0l-8.104,8.104
	C134.279,316.093,97.198,322.643,71.807,348.034z M105.441,381.668c15.681-15.681,41.102-15.681,56.783,0
	c15.681,15.681,15.681,41.102,0,56.783c-15.681,15.681-41.102,15.681-56.783,0C89.762,422.772,89.762,397.349,105.441,381.668z"/>
<path style="fill:#B3404A;" d="M133.815,511.999c-25.513,0-49.867-9.376-68.574-26.399c-20.883-19.007-32.748-44.977-33.411-73.126
	c-0.661-28.164,9.941-54.643,29.856-74.558c19.262-19.26,44.874-29.869,72.117-29.869c9.561,0,18.964,1.312,28.062,3.912
	l1.838-1.839c5.331-5.33,12.417-8.265,19.956-8.265c7.538,0,14.624,2.935,19.956,8.265l30.158,30.158
	c11.003,11.003,11.003,28.908,0,39.912l-1.832,1.831c10.598,36.862-0.199,76.392-28.792,102.91
	C184.328,502.385,159.705,511.999,133.815,511.999z M133.804,336.67c-19.598,0-38.022,7.63-51.877,21.484
	c-14.328,14.328-21.957,33.378-21.48,53.643c0.477,20.251,9.021,38.941,24.061,52.63c13.424,12.217,30.935,18.945,49.306,18.945
	c18.648,0,36.358-6.9,49.87-19.43c22.276-20.66,29.549-52.287,18.529-80.574c-2.061-5.291-0.8-11.301,3.216-15.317l7.817-7.817
	l-29.587-29.588l-7.817,7.819c-4.016,4.016-10.024,5.277-15.317,3.216C151.995,338.356,143.004,336.67,133.804,336.67z
	 M133.832,464.524c-14.549,0-28.225-5.665-38.512-15.953c-21.235-21.237-21.235-55.79,0-77.025
	c10.288-10.286,23.965-15.953,38.512-15.953c14.547,0,28.225,5.665,38.512,15.953c21.235,21.235,21.235,55.788,0,77.025
	C162.058,458.86,148.381,464.524,133.832,464.524z M133.832,384.22c-6.901,0-13.391,2.688-18.271,7.568
	c-10.076,10.074-10.074,26.468,0,36.542c4.881,4.881,11.368,7.568,18.271,7.568s13.391-2.688,18.271-7.568
	c10.074-10.074,10.074-26.468,0-36.542C147.223,386.908,140.735,384.22,133.832,384.22z"/>
<g>
</g>
<g>
</g>
<g>
</g>
<g>
</g>
<g>
</g>
<g>
</g>
<g>
</g>
<g>
</g>
<g>
</g>
<g>
</g>
<g>
</g>
<g>
</g>
<g>
</g>
<g>
</g>
<g>
</g>
</svg>
