<?xml version="1.0" encoding="UTF-8" standalone="no" ?>
<!DOCTYPE svg PUBLIC "-//W3C//DTD SVG 1.1//EN" "http://www.w3.org/Graphics/SVG/1.1/DTD/svg11.dtd">
<svg xmlns="http://www.w3.org/2000/svg" xmlns:xlink="http://www.w3.org/1999/xlink" version="1.1" width="1080" height="1080" viewBox="0 0 1080 1080" xml:space="preserve">
<desc>Created with Fabric.js 4.2.0</desc>
<defs>
</defs>
<g transform="matrix(1 0 0 1 540 540)" id="c0f3537f-08be-4f3a-a39d-70531b2aa0f9"  >
<rect style="stroke: none; stroke-width: 1; stroke-dasharray: none; stroke-linecap: butt; stroke-dashoffset: 0; stroke-linejoin: miter; stroke-miterlimit: 4; fill: rgb(255,255,255); fill-opacity: 0; fill-rule: nonzero; opacity: 1;" vector-effect="non-scaling-stroke"  x="-540" y="-540" rx="0" ry="0" width="1080" height="1080" />
</g>
<g transform="matrix(1 0 0 1 540 540)" id="9fdeb340-63d2-44a8-800a-12a910dc7431"  >
</g>
<g transform="matrix(0.84 0 0 0.84 540 540)" id="27ee811c-ec74-4e45-a015-d6ff7f51be21"  >
<path style="stroke: rgb(0,247,247); stroke-opacity: 0; stroke-width: 0; stroke-dasharray: none; stroke-linecap: butt; stroke-dashoffset: 0; stroke-linejoin: miter; stroke-miterlimit: 4; fill: rgb(255,255,255); fill-rule: nonzero; opacity: 1;" vector-effect="non-scaling-stroke"  transform=" translate(-256, -256)" d="M 510.575 250.694 C 492.65299999999996 219.72799999999998 463.948 195.82999999999998 430.579 183.67399999999998 C 445.58500000000004 151.486 448.986 114.30099999999997 439.758 79.74299999999998 C 438.78 76.07999999999998 435.91999999999996 73.21999999999998 432.257 72.24199999999998 C 397.701 63.01199999999997 360.515 66.41399999999997 328.326 81.41899999999998 C 316.17 48.05099999999998 292.273 19.345999999999982 261.305 1.4239999999999782 C 258.023 -0.47500000000002185 253.975 -0.47500000000002185 250.693 1.4239999999999782 C 219.726 19.34599999999998 195.829 48.05099999999998 183.67200000000003 81.41899999999998 C 151.48300000000003 66.41299999999998 114.29600000000002 63.012999999999984 79.74100000000003 72.24199999999999 C 76.07800000000003 73.21999999999998 73.21800000000003 76.08099999999999 72.24000000000002 79.743 C 63.011000000000024 114.3 66.41300000000003 151.486 81.41900000000003 183.67399999999998 C 48.050000000000026 195.82999999999998 19.345000000000027 219.72699999999998 1.4230000000000302 250.69399999999996 C -0.4759999999999698 253.97699999999995 -0.4759999999999698 258.02399999999994 1.4230000000000302 261.30699999999996 C 19.34500000000003 292.27299999999997 48.05000000000003 316.17099999999994 81.41900000000003 328.32699999999994 C 66.41300000000003 360.51499999999993 63.01200000000003 397.69999999999993 72.24000000000002 432.25699999999995 C 73.21800000000002 435.91999999999996 76.07800000000002 438.78 79.74100000000003 439.7579999999999 C 92.56900000000003 443.1839999999999 105.75400000000003 444.8709999999999 118.91700000000003 444.8709999999999 C 141.21400000000003 444.86999999999995 163.42800000000003 440.0089999999999 183.66900000000004 430.5739999999999 C 195.82400000000004 463.9449999999999 219.72300000000004 492.6529999999999 250.69300000000004 510.5759999999999 C 252.33400000000003 511.5249999999999 254.16600000000005 512.0009999999999 255.99900000000005 512.0009999999999 C 257.8310000000001 512.0009999999999 259.66400000000004 511.52599999999984 261.30500000000006 510.57599999999985 C 292.2750000000001 492.65299999999985 316.17300000000006 463.9449999999998 328.32900000000006 430.57399999999984 C 348.57000000000005 440.0099999999998 370.78100000000006 444.87099999999987 393.0810000000001 444.87099999999987 C 406.24300000000005 444.87099999999987 419.4320000000001 443.18399999999986 432.25700000000006 439.75799999999987 C 435.9200000000001 438.77999999999986 438.7800000000001 435.91899999999987 439.75800000000004 432.2569999999999 C 448.987 397.7009999999999 445.58500000000004 360.5149999999999 430.57900000000006 328.3269999999999 C 463.9480000000001 316.1709999999999 492.6530000000001 292.2739999999999 510.57500000000005 261.3069999999999 C 512.474 258.024 512.474 253.975 510.575 250.694 z M 420.748 91.253 C 426.788 119.211 423.46 148.738 411.471 174.54000000000002 C 393.901 164.043 373.56100000000004 158.53000000000003 353.194 158.805 C 353.446 138.412 347.94800000000004 118.09 337.458 100.528 C 363.26 88.54 392.788 85.212 420.748 91.253 z M 347.791 294.017 C 359.642 288.902 370.172 280.898 378.307 270.839 C 391.207 283.277 400.19800000000004 299.582 403.838 317.238 C 388.793 327.146 370.90700000000004 332.313 352.981 331.984 C 354.34 319.118 352.553 306.012 347.791 294.017 z M 291.903 235.857 C 299.6 232.417 307.99100000000004 230.617 316.497 230.617 C 321.79 230.617 327.048 231.30599999999998 332.123 232.665 C 332.14 232.66899999999998 332.157 232.676 332.174 232.67999999999998 C 345.62899999999996 236.28799999999998 357.57 244.65599999999998 365.666 255.99899999999997 C 357.562 267.359 345.604 275.73699999999997 332.123 279.34099999999995 C 327.051 280.69999999999993 321.793 281.38899999999995 316.497 281.38899999999995 C 307.991 281.38899999999995 299.613 279.59499999999997 291.938 276.17099999999994 C 295.29699999999997 270.21799999999996 297.22499999999997 263.35499999999996 297.22499999999997 256.04499999999996 C 297.224 248.71 295.284 241.824 291.903 235.857 z M 347.792 217.987 C 352.55499999999995 205.989 354.342 192.88299999999998 352.98299999999995 180.016 C 370.905 179.689 388.78899999999993 184.855 403.8399999999999 194.76 C 400.19999999999993 212.416 391.2079999999999 228.721 378.3089999999999 241.16 C 370.172 231.103 359.641 223.1 347.792 217.987 z M 329.384 212.595 C 325.136 211.899 320.825 211.547 316.498 211.547 C 310.368 211.547 304.282 212.258 298.365 213.644 C 299.75 207.728 300.46000000000004 201.638 300.46000000000004 195.501 C 300.46000000000004 191.154 300.10900000000004 186.842 299.41900000000004 182.619 C 310.09400000000005 177.997 322.038 176.526 333.55000000000007 178.453 C 335.475 189.976 334.003 201.925 329.384 212.595 z M 331.986 159.019 C 319.126 157.659 306.02299999999997 159.447 294.024 164.213 C 288.911 152.35899999999998 280.906 141.827 270.841 133.689 C 283.278 120.791 299.583 111.8 317.24 108.16 C 327.147 123.212 332.315 141.097 331.986 159.019 z M 256.132 297.135 C 263.4 297.135 270.229 295.23 276.158 291.905 C 279.591 299.58799999999997 281.39000000000004 307.977 281.39000000000004 316.49399999999997 C 281.39000000000004 321.792 280.701 327.049 279.34100000000007 332.125 C 275.7390000000001 345.601 267.36100000000005 357.56 256.00000000000006 365.664 C 244.63700000000006 357.554 236.26200000000006 345.591 232.66600000000005 332.106 C 231.30800000000005 327.045 230.61800000000005 321.792 230.61800000000005 316.495 C 230.61800000000005 307.952 232.43300000000005 299.52 235.90100000000004 291.788 C 241.88 295.185 248.781 297.135 256.132 297.135 z M 236.226 256.043 C 236.226 245.067 245.156 236.137 256.132 236.137 C 267.108 236.137 276.038 245.067 276.038 256.043 C 276.038 267.019 267.108 275.949 256.132 275.949 C 245.156 275.949 236.226 267.02 236.226 256.043 z M 276.129 220.164 C 270.206 216.849 263.38800000000003 214.952 256.13300000000004 214.952 C 248.79400000000004 214.952 241.90500000000003 216.895 235.93500000000003 220.28 C 232.44600000000003 212.537 230.61900000000003 204.079 230.61900000000003 195.504 C 230.61900000000003 190.206 231.30800000000002 184.95399999999998 232.67100000000002 179.878 C 236.26300000000003 166.404 244.63800000000003 154.44299999999998 256.002 146.33299999999997 C 267.367 154.44099999999997 275.747 166.40499999999997 279.349 179.90599999999998 C 280.704 184.92199999999997 281.39099999999996 190.17 281.39099999999996 195.50199999999998 C 281.391 204.048 279.583 212.461 276.129 220.164 z M 256 23.004 C 280.043 38.511 298.577 61.747 308.354 88.46300000000001 C 288.508 93.462 270.243 103.94200000000001 256 118.53500000000001 C 241.758 103.94200000000001 223.49099999999999 93.46100000000001 203.645 88.46300000000001 C 213.422 61.747 231.957 38.513 256 23.004 z M 194.752 108.159 C 212.413 111.798 228.72000000000003 120.79 241.161 133.692 C 231.098 141.832 223.095 152.365 217.986 164.21300000000002 C 205.97799999999998 159.44400000000002 192.86599999999999 157.657 179.998 159.02200000000002 C 179.62 140.971 184.772 123.257 194.752 108.159 z M 220.272 276.074 C 212.539 279.56100000000004 204.08599999999998 281.386 195.504 281.386 C 190.18099999999998 281.386 184.933 280.699 179.879 279.33500000000004 C 166.404 275.74100000000004 154.44199999999998 267.36300000000006 146.33499999999998 255.99600000000004 C 154.43399999999997 244.64900000000003 166.37699999999998 236.28000000000003 179.83999999999997 232.67700000000005 C 179.85699999999997 232.67300000000006 179.87399999999997 232.66600000000005 179.89099999999996 232.66200000000006 C 184.96299999999997 231.30400000000006 190.21499999999997 230.61400000000006 195.50299999999996 230.61400000000006 C 204.08999999999995 230.61400000000006 212.55799999999996 232.44400000000007 220.31099999999995 235.94300000000007 C 216.96199999999996 241.89000000000007 215.03999999999996 248.74400000000006 215.03999999999996 256.0420000000001 C 215.04 263.313 216.946 270.143 220.272 276.074 z M 159.023 331.985 C 141.101 332.314 123.213 327.148 108.162 317.242 C 111.798 299.594 120.79 283.288 133.693 270.84200000000004 C 141.83300000000003 280.908 152.366 288.91400000000004 164.21200000000002 294.02200000000005 C 159.448 306.015 157.662 319.119 159.023 331.985 z M 164.214 217.984 C 152.363 223.095 141.832 231.097 133.694 241.157 C 120.78999999999999 228.709 111.797 212.40200000000002 108.16299999999998 194.75300000000001 C 123.30999999999999 184.73200000000003 140.94 179.61 159.02599999999998 179.99400000000003 C 157.658 192.868 159.444 205.981 164.214 217.984 z M 178.458 178.455 C 189.971 176.52700000000002 201.921 177.99800000000002 212.599 182.62300000000002 C 211.904 186.86700000000002 211.551 191.17600000000002 211.551 195.50400000000002 C 211.551 201.63800000000003 212.26299999999998 207.729 213.648 213.64800000000002 C 207.728 212.26000000000002 201.637 211.54800000000003 195.501 211.54800000000003 C 191.17600000000002 211.54800000000003 186.86700000000002 211.90100000000004 182.622 212.59600000000003 C 177.999 201.926 176.526 189.977 178.458 178.455 z M 91.252 91.253 C 119.207 85.213 148.727 88.54 174.526 100.523 C 163.96300000000002 118.107 158.485 138.25799999999998 158.79000000000002 158.78199999999998 C 138.28000000000003 158.46599999999998 118.16700000000003 163.91199999999998 100.52200000000002 174.52499999999998 C 88.54 148.726 85.213 119.204 91.252 91.253 z M 23.006 256 C 38.513 231.956 61.749 213.422 88.466 203.64600000000002 C 93.463 223.485 103.94399999999999 241.75 118.54299999999999 256 C 103.945 270.25 93.464 288.515 88.466 308.354 C 61.749 298.577 38.512 280.042 23.006 256 z M 91.252 420.747 C 85.21199999999999 392.79 88.53999999999999 363.262 100.52799999999999 337.46000000000004 C 118.091 347.956 138.417 353.46700000000004 158.805 353.19500000000005 C 158.553 373.5880000000001 164.05100000000002 393.9100000000001 174.541 411.47200000000004 C 148.74 423.459 119.212 426.787 91.252 420.747 z M 182.622 299.411 C 186.854 300.104 191.163 300.455 195.50300000000001 300.455 C 201.64200000000002 300.455 207.733 299.74199999999996 213.651 298.354 C 212.263 304.276 211.55100000000002 310.363 211.55100000000002 316.496 C 211.55100000000002 320.82399999999996 211.90300000000002 325.133 212.598 329.37399999999997 C 201.93 333.99699999999996 189.98200000000003 335.47099999999995 178.45800000000003 333.546 C 176.528 322.025 178.001 310.078 182.622 299.411 z M 180.014 352.98 C 182.806 353.276 185.61 353.43 188.412 353.43 C 198.52 353.43 208.59300000000002 351.512 217.984 347.78000000000003 C 223.09400000000002 359.632 231.096 370.165 241.157 378.30400000000003 C 228.703 391.21500000000003 212.39700000000002 400.20900000000006 194.75900000000001 403.84000000000003 C 184.853 388.789 179.685 370.903 180.014 352.98 z M 256 488.995 C 231.958 473.48900000000003 213.424 450.253 203.648 423.538 C 223.47899999999998 418.543 241.744 408.063 256 393.457 C 270.256 408.063 288.521 418.544 308.354 423.538 C 298.577 450.254 280.042 473.487 256 488.995 z M 317.238 403.84 C 299.601 400.20799999999997 283.298 391.215 270.844 378.306 C 280.904 370.16999999999996 288.909 359.638 294.024 347.786 C 303.41700000000003 351.515 313.488 353.431 323.594 353.431 C 326.394 353.431 329.19599999999997 353.276 331.98699999999997 352.98199999999997 C 332.315 370.911 327.146 388.795 317.238 403.84 z M 333.548 333.547 C 322.029 335.47200000000004 310.081 334 299.412 329.382 C 300.10699999999997 325.135 300.459 320.826 300.459 316.498 C 300.459 310.363 299.749 304.276 298.366 298.363 C 304.279 299.746 310.365 300.456 316.498 300.456 C 320.82599999999996 300.456 325.138 300.10400000000004 329.384 299.409 C 334.001 310.077 335.472 322.024 333.548 333.547 z M 420.748 420.747 C 392.787 426.788 363.26099999999997 423.46000000000004 337.45799999999997 411.471 C 347.94899999999996 393.915 353.44699999999995 373.594 353.19399999999996 353.195 C 373.58099999999996 353.449 393.91099999999994 347.948 411.46999999999997 337.45799999999997 C 423.46 363.261 426.788 392.79 420.748 420.747 z M 423.535 308.354 C 418.535 288.508 408.05600000000004 270.24199999999996 393.46200000000005 255.999 C 408.05600000000004 241.75799999999998 418.53400000000005 223.492 423.53400000000005 203.647 C 450.25100000000003 213.423 473.48600000000005 231.957 488.99300000000005 255.999 C 473.486 280.043 450.253 298.578 423.535 308.354 z" stroke-linecap="round" />
</g>
</svg>